<svg id="Layer_1" data-name="Layer 1" xmlns="http://www.w3.org/2000/svg" viewBox="0 0 497.25 430.37"><title>google-drive</title><path d="M165.71.2h6.5c50.5,0,101,.1,151.5-.2,5.5,0,8.5,2,11,6.4Q350.76,34.9,367,63.3q19.8,34.8,39.8,69.5c14.8,25.9,29.8,51.6,44.6,77.5,11.9,20.7,23.6,41.6,35.4,62.4,1.5,2.6,5,5.2,3.5,7.8-.8,1.4-5.6.6-8.5.6-28.8-.3-57.6-.4-86.4-1.2-19.7-.6-39.3-.3-58.9-.8-5.6-.1-11.3-.6-16.9-.7-2.3,0-3.1-1.2-4-2.9-9.7-17.9-19.4-35.7-29.2-53.6q-15.6-28.65-31.3-57.4-17.25-31.8-34.5-63.5c-11.6-21.3-23.3-42.6-34.9-64C178.91,25,172.51,12.9,165.71.2Z" style="fill:#777"/><path d="M87.31,429.3c1.6-6.5,5.5-10.8,8.3-15.6,14.5-25.3,29.3-50.3,43.9-75.5q12.9-22.35,25.5-44.8a5.61,5.61,0,0,1,5.6-3.2c27.6.4,55.3.3,82.9,1.3,16.7.6,33.3.4,49.9.8,20.1.4,40.3.2,60.4,1.2,13.8.6,27.6.4,41.4.7,29.3.5,58.6.8,87.9,1.2,1.4,0,3.2-.7,4,1.1.5,1.3-.4,2.4-1.2,3.6q-15.6,24.45-31.2,49.1c-10.6,16.7-21.1,33.5-31.6,50.2-5.3,8.4-10.6,16.7-15.6,25.2-2.3,3.9-4.9,6.2-9.8,5.7a149.94,149.94,0,0,0-16.4-.7l-297.9-.3Z" style="fill:#777"/><path d="M0,281.6c1.1-5.3,4.5-9.5,7.1-14,14.3-25.7,28.9-51.2,43.3-76.8,9.7-17.1,19.5-34.3,29.2-51.4,12.9-22.8,25.7-45.7,38.6-68.5,10.7-18.9,21.6-37.8,32.4-56.7,4.7-8.2,5.1-8.4,9.3-.6,8.3,15.6,16.7,31.1,24.8,46.8,6.1,11.9,12.6,23.7,18.9,35.5,7.2,13.6,14.5,27.2,21.7,40.7,2.2,4.2,4.3,8.6,6.8,12.7,1.3,2.1.9,3.4-.3,5.4-16.2,27.3-32.2,54.7-48.4,81.9-14,23.6-28.3,47-42.3,70.6-16.4,27.5-32.6,55.1-49,82.6-6.6,11.2-13.3,22.4-20,33.6-.6,1.1-.8,2.8-2.5,2.7s-2-1.7-2.6-2.8c-3.7-7.6-7.3-15.2-10.9-22.8-6.9-14.7-13.9-29.3-20.9-44-9-18.8-18-37.5-27-56.3-2.3-4.8-4.5-9.6-6.8-14.3C.81,284.5-.09,283.3,0,281.6Z" style="fill:#777"/></svg>